<?xml version="1.0" encoding="iso-8859-1"?>
<!-- Generator: Adobe Illustrator 19.0.0, SVG Export Plug-In . SVG Version: 6.00 Build 0)  -->
<svg version="1.1" id="Capa_1" xmlns="http://www.w3.org/2000/svg" xmlns:xlink="http://www.w3.org/1999/xlink" x="0px" y="0px"
	 viewBox="55 30 400 400" style="enable-background:new 0 0 512 512;" xml:space="preserve">

<path style="fill:000000; opacity:90%;" d="M424.129,250.177c-0.759-1.06-18.94-26.261-48.455-51.746C335.949,164.13,294.566,146,256,146s-79.949,18.13-119.674,52.431
	c-29.515,25.485-47.696,50.686-48.455,51.746c-2.494,3.481-2.494,8.165,0,11.646c0.759,1.06,18.94,26.261,48.455,51.746
	C176.051,347.87,217.434,366,256,366s79.949-18.13,119.674-52.431c29.515-25.485,47.696-50.686,48.455-51.746
	C426.624,258.342,426.624,253.658,424.129,250.177z M256,346c-70.145,0-130.774-69.231-147.384-90.006
	C125.204,235.206,185.722,166,256,166c70.145,0,130.772,69.228,147.384,90.006C386.796,276.794,326.278,346,256,346z"/>
<path style="fill:#3593EF; opacity:90%;" d="M256,186c-38.598,0-70,31.402-70,70s31.402,70,70,70s70-31.402,70-70S294.598,186,256,186z M256,306
	c-27.57,0-50-22.43-50-50s22.43-50,50-50s50,22.43,50,50S283.57,306,256,306z"/>
<path style="fill:blavk; opacity:90%;" d="M266,116V76c0-5.523-4.477-10-10-10s-10,4.477-10,10v40c0,5.523,4.477,10,10,10C261.523,126,266,121.523,266,116z"/>

<path style="fill:black; opacity:90%;" d="M362.062,347.919c-3.905-3.905-10.237-3.905-14.143,0c-3.905,3.905-3.905,10.237,0,14.143l28.29,28.29
	c1.953,1.953,4.512,2.929,7.071,2.929s5.119-0.976,7.071-2.929c3.905-3.905,3.905-10.237,0-14.143L362.062,347.919z"/>
<path style="fill:black; opacity:90%;" d="M135.792,390.351l28.29-28.29c3.905-3.905,3.905-10.237,0-14.143c-3.905-3.905-10.237-3.905-14.143,0l-28.29,28.29
	c-3.905,3.905-3.905,10.237,0,14.143c1.953,1.953,4.512,2.929,7.071,2.929S133.839,392.304,135.792,390.351z"/>

<g>
</g>
<g>
</g>
<g>
</g>
<g>
</g>
<g>
</g>
<g>
</g>
<g>
</g>
<g>
</g>
<g>
</g>
<g>
</g>
<g>
</g>
<g>
</g>
<g>
</g>
<g>
</g>
<g>
</g>
</svg>
