<svg xmlns="http://www.w3.org/2000/svg" xmlns:xlink="http://www.w3.org/1999/xlink" version="1.1" x="0px" y="0px" fill="black" opacity="90" viewBox="10 5 45 55" enable-background="new 0 0 64 64" xml:space="preserve"><g><g><path d="M50.6794968,44.9665794c-0.1289063-0.5371094-0.6689453-0.8647461-1.2050781-0.7397461    c-0.5371094,0.1289063-0.8691406,0.668457-0.7402344,1.2055664c0.8691406,3.6308594,0.5917969,6.3134766-0.8261719,7.9726563    c-1.8535156,2.168457-5.1728516,1.9335938-5.2871094,1.9291992H27.5935612    c0.4150391-1.1914063,1.5498047-2.0488281,2.8808594-2.0488281h5.060545c0.5527344,0,1-0.4477539,1-1s-0.4472656-1-1-1    c-3.3554688,0-6.084959-2.7299805-6.084959-6.0859375c0-3.3554688,2.7294903-6.0854492,6.084959-6.0854492    c0.5527344,0,1-0.4477539,1-1s-0.4472656-1-1-1c-4.4580059,0-8.084959,3.6269531-8.084959,8.0854492    c0,2.4391479,1.09021,4.6245117,2.8034058,6.1082764c-2.6797485,0.1185913-4.8278198,2.3179932-4.8278198,5.0264893    c0,0.5522461,0.4472656,1,1,1l16.1113262-0.003418c0.0332031,0.0029297,0.2138672,0.0166016,0.5009766,0.0166016    c1.2138672,0,4.3310547-0.2485352,6.3769531-2.6279297C51.2830124,52.5466576,51.7087936,49.2654076,50.6794968,44.9665794z"/><path d="M21.9548893,18.074976c-0.4501953-0.3300781-1.0205078-0.559082-1.6816406-0.824707    c-1.4980469-0.6015625-3.5498047-1.4257803-5.149415-3.9628897c-0.3564453-0.5664063-0.4589844-1.3476563-0.2421875-1.8569336    c0.1220703-0.2875977,0.3349609-0.4536133,0.6689453-0.5229492c0.3574219-0.0742188,0.8544931,0.0390625,1.3769541,0.1591797    c0.4550781,0.1049805,0.9257813,0.2133789,1.4238281,0.2314453c1.1132813,0.0317383,2.3193359-0.1723633,3.3837891-0.5981445    c0.3681641-0.1469727,0.7480469-0.3066406,1.1386719-0.4707031c2.8261719-1.1879883,6.0263672-2.5317388,8.3632813-0.6274414    c2.1289043,1.7358398,2.5937481,6.5146475,1.3876934,8.815917c-0.3525391,0.671875-1.2705059,1.0415039-2.2343731,0.8974609    c-0.4804688-0.0717773-1.6279297-0.3911133-1.8916016-1.7983398c-0.2148438-1.1484375,0.328125-3.6723623,1.6699219-5.0136709    c0.390625-0.390625,0.390625-1.0234375,0-1.4140625s-1.0234375-0.390625-1.4140625,0    c-1.7607422,1.7607422-2.5703125,4.9355459-2.2207031,6.7958975c0.3417969,1.824707,1.7060547,3.1303711,3.5605469,3.4082031    c0.9187622,0.1381836,1.8114624,0.0066528,2.5682354-0.3404541c0.4596558,3.1169434,2.0059814,5.6445923,3.7188721,8.1407471    c4.9638672,7.2304707,8.5185547,13.3569355,5.4628906,20.8505878c-0.2089844,0.5112305,0.0371094,1.0947266,0.5478516,1.3032227    c0.1240234,0.0507813,0.2519531,0.074707,0.3779297,0.074707c0.3945313,0,0.7675781-0.2353516,0.9257813-0.6230469    c3.7050781-9.0874023-1.4902344-16.6557617-5.6660156-22.7373066c-1.8569336-2.7072144-3.513916-5.4293213-3.5117798-8.8833618    c1.4505005-3.131896,0.8504028-8.6882315-2.0175171-11.0263052c-3.2665997-2.6635747-7.3906231-0.9321294-10.4013653,0.3334961    c-0.3798828,0.1591797-0.75,0.3149414-1.1064453,0.4575195c-0.8125,0.324707-1.7265625,0.4824219-2.5693359,0.4560547    c-0.3076172-0.0107422-0.6669922-0.09375-1.046875-0.1811523c-0.6767578-0.1557617-1.4443369-0.3325195-2.2324228-0.168457    c-0.9765625,0.2021484-1.7236328,0.8056641-2.1025391,1.6982422c-0.46875,1.1020508-0.3125,2.5913086,0.390625,3.7060547    c1.9443359,3.08496,4.4423838,4.088378,6.0957041,4.7524405c0.5351563,0.2148438,0.9970703,0.4008789,1.2451172,0.5820313    c0.1425781,0.1044922,3.4667969,2.637207,0.6894531,8.9111328c-1.9462891,4.3945332-1.1484375,9.6132832-0.4453125,14.2172871    c0.1308594,0.855957,0.2597656,1.6967773,0.3681641,2.5136719c0.4716797,3.5664063-0.1806641,5.2138672-0.8105469,5.9682617    c-0.5214844,0.6245117-1.2724609,0.9516602-2.2470703,0.9990234h-1.0126953c-2.2255869,0-4.0371103,1.8110352-4.0371103,4.0366211    c0,0.5522461,0.4472656,1,1,1h8.0986338c0.5527344,0,1-0.4477539,1-1s-0.4472656-1-1-1h-6.8359385    c0.3505859-0.6181641,1.0146494-1.0366211,1.774415-1.0366211l1.0605469-0.0009766    c1.5898438-0.0756836,2.8457031-0.6533203,3.734375-1.7158203c1.2890625-1.5444336,1.7128906-4.0717773,1.2578125-7.5126953    c-0.1103516-0.8305664-0.2402344-1.6845703-0.3730469-2.5537109c-0.6953125-4.5449219-1.4130859-9.2451172,0.2958984-13.1054707    C26.0232487,23.2380619,23.7371159,19.3811283,21.9548893,18.074976z"/><circle cx="25.4131165" cy="11.7959852" r="1.0122375"/></g></g></svg>