<?xml-stylesheet type="text/css" href="svg-stylesheet.css" ?>

<svg id="Capa_1" enable-background="new 0 0 512 512" height="512" viewBox="0 0 512 512" width="512" xmlns="http://www.w3.org/2000/svg"><g><path class="rainbow" d="m436 241h-45.838c-1.527-13.753-5.128-26.887-10.484-39.086l39.706-22.924c7.174-4.142 9.632-13.315 5.49-20.49s-13.316-9.634-20.49-5.49l-39.744 22.946c-8.051-10.898-17.698-20.545-28.596-28.596l22.946-39.745c4.142-7.175 1.684-16.349-5.49-20.49-7.176-4.145-16.349-1.684-20.49 5.49l-22.924 39.706c-12.199-5.355-25.333-8.956-39.086-10.483v-45.838c0-8.284-6.716-15-15-15s-15 6.716-15 15v45.838c-13.753 1.527-26.887 5.128-39.086 10.483l-22.924-39.706c-4.142-7.175-13.315-9.635-20.49-5.49-7.174 4.142-9.632 13.315-5.49 20.49l22.946 39.745c-10.898 8.051-20.546 17.698-28.596 28.596l-39.745-22.947c-7.176-4.145-16.349-1.684-20.49 5.49-4.142 7.175-1.684 16.349 5.49 20.49l39.706 22.924c-5.355 12.198-8.956 25.333-10.484 39.085h-45.837c-8.284 0-15 6.716-15 15s6.716 15 15 15h45.838c1.527 13.753 5.128 26.887 10.484 39.086l-39.706 22.926c-7.174 4.142-9.632 13.315-5.49 20.49 2.778 4.813 7.82 7.503 13.004 7.503 2.544 0 5.124-.648 7.486-2.013l39.744-22.946c8.051 10.898 17.698 20.545 28.596 28.596l-22.946 39.745c-4.142 7.175-1.684 16.349 5.49 20.49 2.363 1.364 4.941 2.013 7.486 2.013 5.184 0 10.227-2.691 13.004-7.503l22.924-39.706c12.199 5.355 25.333 8.956 39.085 10.483v45.838c0 8.284 6.716 15 15 15s15-6.716 15-15v-45.838c13.753-1.527 26.887-5.128 39.086-10.483l22.924 39.706c2.778 4.813 7.82 7.503 13.004 7.503 2.544 0 5.124-.648 7.486-2.013 7.174-4.142 9.632-13.315 5.49-20.49l-22.946-39.745c10.898-8.051 20.546-17.698 28.596-28.596l39.745 22.947c2.362 1.364 4.941 2.013 7.486 2.013 5.184 0 10.227-2.691 13.004-7.503 4.142-7.175 1.684-16.349-5.49-20.49l-39.706-22.924c5.355-12.198 8.956-25.333 10.484-39.085h45.838c8.284 0 15-6.716 15-15s-6.716-15.002-15-15.002zm-180 120c-57.897 0-105-47.103-105-105s47.103-105 105-105 105 47.103 105 105-47.103 105-105 105z"/><path class="rainbow" d="m256 201c-30.327 0-55 24.673-55 55s24.673 55 55 55 55-24.673 55-55-24.673-55-55-55zm0 80c-13.785 0-25-11.215-25-25s11.215-25 25-25 25 11.215 25 25-11.215 25-25 25z"/></g></svg>
