<?xml version="1.0" encoding="utf-8"?>
<!-- Svg Vector Icons : http://www.onlinewebfonts.com/icon -->
<svg version="1.1" xmlns="http://www.w3.org/2000/svg" xmlns:xlink="http://www.w3.org/1999/xlink" x="0px" y="0px" viewBox="0 0 1000 1000" enable-background="new 0 0 1000 1000" xml:space="preserve">
<metadata> Svg Vector Icons : http://www.onlinewebfonts.com/icon </metadata>
<g><g transform="translate(0.000000,512.000000) scale(0.100000,-0.100000)"><path d="M2035.1,4993.5c-116.8-63.2-149.4-271.9-114.9-737.3c11.5-162.8,30.6-624.3,40.2-1024.5c15.3-628.1,23-748.7,55.5-875.2c46-174.3,40.2-162.8,239.4-492.1l155.1-256.6l9.6-231.7c9.6-210.6,15.3-239.4,63.2-321.7c47.9-80.4,51.7-97.7,34.5-162.8c-30.6-105.3-24.9-302.6,7.7-383c15.3-36.4,28.7-93.8,28.7-124.5c0-30.6,23-122.5,49.8-203c32.6-99.6,46-168.5,38.3-214.5c-5.7-36.4-63.2-206.8-126.4-377.3c-130.2-350.4-137.9-398.3-67-430.9c61.3-26.8,59.4-45.9-9.6-137.9c-65.1-88.1-68.9-109.2-26.8-183.8c30.6-51.7,30.6-55.5-23-126.4c-67-86.2-367.7-358.1-553.4-497.9c-72.8-55.5-250.9-162.8-392.6-239.4c-407.9-218.3-564.9-335.1-677.9-503.6c-105.3-157-24.9-204.9,91.9-53.6c107.2,137.9,314.1,293,672.2,505.6c687.5,409.8,1024.5,676,1110.7,882.8c21.1,51.7,21.1,70.9,0,124.5c-24.9,57.5-23,70.9,32.6,185.8c53.6,116.8,55.5,128.3,26.8,170.4c-15.3,26.8-47.9,51.7-68.9,59.4c-46,15.3-46,13.4,61.3,283.4c97.7,247,109.2,369.6,51.7,520.9c-40.2,105.3-44,147.5-46,507.5c-1.9,344.7-7.7,400.2-38.3,459.6c-26.8,47.9-38.3,111.1-40.2,229.8c-3.8,214.5-53.6,360-208.7,603.2c-256.6,409.8-256.6,407.9-323.6,1671.8c-49.8,925-46,1097.3,23,1217.9c24.9,44,49.8,61.3,97.7,65.1c51.7,5.8,97.7-17.2,254.7-124.5c266.2-181.9,465.3-396.4,725.8-785.1c266.2-400.2,350.4-499.8,478.8-570.7c93.8-51.7,120.6-57.5,266.2-55.5c136,1.9,203,15.3,411.7,82.3c365.8,118.7,501.7,143.6,722,128.3c176.2-11.5,193.4-7.7,331.3,45.9c170.4,67,214.5,70.9,360,19.2c65.1-23,157.1-38.3,231.7-38.3c68.9,0,174.3-13.4,233.6-28.7c61.3-15.3,243.2-36.4,404.1-47.9c352.4-23,555.3-59.4,685.6-122.5c139.8-69,174.3-74.7,243.2-42.1c34.5,17.2,229.8,206.8,430.9,423.2c699,741.1,1108.8,1059,1143.3,886.6c32.5-157,15.3-1568.4-26.8-2108.4c-17.2-241.3-21.1-254.7-114.9-453.9c-206.8-446.2-254.7-689.4-176.2-890.5l38.3-95.7l-68.9-132.1c-82.3-155.1-90-243.2-26.8-331.3c51.7-72.8,51.7-114.9,3.9-379.2c-42.1-233.6-47.9-383-17.2-463.4c15.3-38.3,13.4-93.8-3.8-203c-19.2-116.8-19.2-193.4-1.9-363.8c21.1-201.1,19.1-231.7-26.8-517l-51.7-300.7l36.4-120.6c51.7-168.5,44.1-243.2-36.4-375.3c-61.3-99.6-68.9-124.5-67-233.6c1.9-90-9.6-143.6-38.3-203c-23-44-53.6-166.6-70.8-285.3c-86.2-584.1-206.8-909.6-507.5-1376.9c-189.6-293-252.8-402.1-293-501.7c-26.8-68.9-26.8-82.3-1.9-103.4c53.6-44.1,111.1,9.6,199.2,178.1c46,86.2,162.8,296.8,258.5,465.3c342.8,595.6,392.6,716.2,478.8,1170c28.7,147.5,67,304.5,88.1,352.4c21.1,47.9,46,147.5,53.6,220.2c9.6,76.6,34.4,172.4,59.4,220.2c47.9,93.8,47.9,91.9,65.1,1857.5c3.8,450,5.7,476.8,55.5,637.7c67,214.5,65.1,270-9.6,411.7l-59.4,118.7l59.4,114.9c70.9,132.1,72.8,160.9,30.7,367.7c-40.2,203-23,298.7,134.1,689.4c180,453.9,193.4,532.4,191.5,1145.2c-1.9,515.1-36.4,1403.7-57.4,1497.5c-17.2,72.8-95.8,145.5-172.4,160.9c-147.5,26.8-327.5-114.9-1018.8-808.1c-476.8-478.7-520.9-505.6-712.4-438.5c-120.7,42.1-281.5,65.1-633.9,86.2c-193.4,11.5-371.5,34.5-461.5,57.5c-95.8,24.9-199.1,36.4-304.5,34.5c-88.1-1.9-204.9,3.8-258.5,13.4c-82.3,11.5-124.5,5.7-254.7-38.3c-116.8-38.3-178.1-47.9-237.5-40.2c-356.2,51.7-561.1,30.6-875.2-93.8c-235.5-93.8-371.5-99.6-499.8-24.9c-109.2,63.2-285.3,248.9-494.1,520.9c-88.1,114.9-245.1,293-348.5,394.5C2540.7,4916.9,2213.2,5091.2,2035.1,4993.5z"/><path d="M8948.2,4463c-17.2-28.7-28.7-147.4-32.6-337c-7.7-291.1,3.8-444.3,32.6-413.6c26.8,30.6,78.5,271.9,101.5,474.9c17.2,160.8,15.3,204.9-5.7,250.8C9009.5,4509,8976.9,4518.6,8948.2,4463z"/><path d="M2921.7,3258.5c47.9-86.2,350.4-383,450-442.4c70.8-42.1,90-80.4,63.2-132.1c-30.6-55.5-113-44-279.6,38.3c-113,57.4-185.7,113-291.1,220.2c-124.5,128.3-195.3,176.2-195.3,132.1c0-55.5,239.4-321.7,436.6-488.3c147.5-126.4,183.8-181.9,126.4-201.1c-11.5-3.8-111.1,53.6-220.2,128.3c-109.1,72.8-204.9,134-212.6,134c-34.5,0-7.7-40.2,109.2-172.3c68.9-76.6,124.5-147.5,124.5-157c0-11.5-53.6-13.4-141.7-5.7c-155.1,15.3-191.5-1.9-126.4-63.2c47.9-44,120.6-61.3,266.2-61.3c227.9,0,296.8,47.9,421.3,287.2c91.9,180,139.8,325.6,132.1,404.1c-5.7,55.5-17.2,67-130.2,113c-145.5,57.5-298.7,153.2-427,264.3C2902.6,3363.8,2862.4,3363.8,2921.7,3258.5z"/><path d="M8078.8,3097.6c-82.4-90-155.1-162.8-164.7-162.8c-7.7,0-21.1,30.6-28.7,67c-21.1,116.8-65.1,70.9-65.1-68.9c0-139.8,130.2-396.4,277.7-545.8c30.6-32.6,86.2-99.6,118.7-147.5c46-65.1,74.7-90,109.2-90c40.2,0,160.8,91.9,350.4,268.1c74.7,69,157.1,224.1,162.8,308.3c9.6,101.5-30.6,82.3-91.9-42.1c-67-143.6-183.9-250.9-329.4-304.5c-218.3-82.3-243.2-21.1-99.6,256.6c99.6,197.2,124.5,289.2,63.2,239.4c-17.2-15.3-74.7-78.5-126.4-141.7c-180-216.4-201.1-193.4-72.7,70.9c53.6,111.1,97.6,220.2,97.6,245.1v46l-57.5-55.5c-70.9-67-70.9-55.5-9.6,67c49.8,97.7,61.3,153.2,30.6,153.2C8233.9,3260.4,8159.2,3187.7,8078.8,3097.6z"/><path d="M4614.6,2950.2c-5.8-24.9-13.4-74.7-19.2-111.1c-7.7-38.3-47.9-136-91.9-220.2c-216.4-417.5-197.2-363.8-197.2-574.5c1.9-193.4,36.4-354.3,68.9-321.7c9.6,9.6,30.6,91.9,44,181.9c17.2,107.2,59.4,243.2,122.6,390.7c95.8,226,157,448.1,157,563C4698.9,2967.4,4631.8,3038.3,4614.6,2950.2z"/><path d="M6372.6,2831.5c-15.3-67,44-384.9,90-474.9c23-44,82.4-130.2,134.1-193.4c51.7-61.3,122.6-164.7,155.1-229.8c51.7-99.6,63.2-111.1,68.9-72.8c15.3,99.6-23,226-130.2,430.9c-61.3,116.8-132.1,273.8-159,346.6c-68.9,191.5-91.9,239.4-120.6,239.4C6395.5,2877.4,6380.2,2856.4,6372.6,2831.5z"/><path d="M5160.4,2289.5c-9.6-21.1-28.7-93.8-38.3-160.8c-11.5-67-38.3-199.2-59.4-294.9c-49.8-224.1-49.8-413.6,0-522.8c19.2-44,76.6-137.9,126.4-206.8l91.9-128.3l19.1-283.4c28.7-432.8,78.5-352.4,78.5,126.4c0,266.2,0,270-67,411.7l-67,143.6v444.3c0,388.7-3.8,448.1-32.6,476.8C5183.3,2324,5179.5,2324,5160.4,2289.5z"/><path d="M5924.5,2197.6c0-63.2,44-239.4,109.1-438.5c63.2-193.4,61.3-289.2-1.9-490.2c-59.4-181.9-70.9-386.8-30.6-536.2c38.3-141.7,97.6-287.2,116.8-287.2c9.6,0,17.2,88.1,17.2,197.2c0,116.8,15.3,273.9,38.3,390.7c84.3,436.6,70.8,563-93.8,886.6c-51.7,99.6-99.6,210.6-105.3,245.1C5957,2243.6,5924.5,2264.6,5924.5,2197.6z"/><path d="M7458.3,1286.1c-342.8-42.1-505.6-118.7-702.8-331.3c-183.9-197.3-314.1-488.3-314.1-700.9l1.9-86.2l46,57.5c120.6,151.3,116.8,149.4,235.5,134.1c293-36.4,570.7,21.1,758.4,155.1c72.7,55.5,105.3,97.7,158.9,212.6c36.4,78.5,80.4,203,99.6,275.8c26.8,107.2,47.9,145.5,99.6,189.6c53.6,44,61.3,59.4,40.2,78.5C7850.9,1303.3,7647.9,1309.1,7458.3,1286.1z M7567.5,1169.2c32.6-32.5,28.7-237.4-5.7-354.3c-38.3-126.4-153.2-256.6-281.5-314c-90-40.2-130.2-46-337-46c-212.6,0-239.4,3.8-264.2,36.4c-32.6,45.9-32.6,53.6,0,99.6c26.8,34.5,30.6,36.4,122.5,3.8c325.5-114.9,635.8,93.8,635.8,429c0,124.5,19.2,168.5,76.6,168.5C7531.1,1192.2,7554.1,1182.7,7567.5,1169.2z M7305.1,1096.5c38.3-21.1,49.8-103.4,17.2-124.5c-9.6-5.7-44.1,1.9-76.6,19.1c-32.6,17.2-72.8,26.8-91.9,24.9c-49.8-9.6-38.3,47.9,15.3,74.7C7228.6,1121.4,7257.3,1121.4,7305.1,1096.5z M6933.6,761.4c86.2-36.4,122.6-36.4,206.8,3.8c84.3,40.2,107.2,21.1,47.9-42.1c-90-95.7-248.9-107.2-352.4-26.8C6734.5,776.7,6795.8,818.8,6933.6,761.4z"/><path d="M3657.1,1132.9c-164.7-24.9-329.4-69-430.9-116.8l-88.1-42.1l86.2-5.8c155.1-11.5,164.7-17.2,258.5-174.3c153.2-256.6,294.9-381.1,511.3-446.2c118.7-36.4,158.9-40.2,319.8-26.8c363.9,30.6,392.6,26.8,471.1-47.9c38.3-36.4,84.3-90,101.5-118.7c70.9-118.7,70.9-28.7,0,191.5c-21.1,67-80.4,185.8-132.1,262.4C4501.6,985.4,4065,1194.2,3657.1,1132.9z M3733.7,989.3c11.5-15.3,26.8-80.4,34.5-145.6c24.9-237.4,178.1-388.7,394.5-386.8c118.7,0,201.1,36.4,312.1,134c82.3,74.7,99.6,78.5,128.3,26.8c32.6-63.2,7.7-105.3-101.5-164.7c-88.1-49.8-116.8-55.5-262.4-53.6c-227.9,1.9-356.2,53.6-509.4,206.8c-120.6,122.5-199.2,256.6-199.2,340.9C3530.7,1029.5,3678.2,1060.1,3733.7,989.3z M3906,872.4c7.7-30.6,38.3-103.4,67-162.8c30.6-61.3,55.5-114.9,55.5-120.6c0-3.8-23,1.9-49.8,13.4c-63.2,28.7-122.6,145.5-122.6,245.1C3856.3,935.6,3886.9,951,3906,872.4z M4292.9,887.8c38.3-19.2,88.1-55.5,109.2-78.5c34.5-36.4,34.5-45.9,9.6-90c-34.5-61.3-65.1-61.3-72.8,0c-3.8,32.6-28.7,57.4-80.4,80.4c-74.7,32.6-105.3,72.8-84.3,107.3C4189.5,931.8,4212.4,928,4292.9,887.8z"/><path d="M7858.6,903.1c0-23,36.4-90,82.3-151.3c44.1-61.3,109.2-164.7,145.6-227.9c74.6-132.1,239.4-325.5,260.4-304.5c7.7,7.7-3.9,44-26.8,80.4c-23,36.4-76.6,149.4-116.8,252.8c-130.2,316-185.8,390.6-294.9,390.6C7870.1,943.3,7858.6,933.7,7858.6,903.1z"/><path d="M3140.1,707.7c-65.1-86.2-88.1-153.2-88.1-268.1c0-55.5-17.2-155.1-38.3-220.2c-46-145.5-46-157-9.6-157c28.7,0,197.2,216.4,279.6,358.1l46,80.4l-44,57.4c-40.2,55.5-42.1,63.2-13.4,116.8c36.4,69,24.9,95.8-38.3,95.8C3205.2,770.9,3170.7,748,3140.1,707.7z"/><path d="M7896.9,324.7c0-46,260.4-618.5,321.7-706.6C8278-470,8373.7-558.1,8389-542.7c5.8,3.8-21.1,49.8-57.4,101.5c-86.2,116.8-118.7,199.2-178.1,434.7c-53.6,208.7-69,249-128.3,314.1C7983.1,353.5,7896.9,365,7896.9,324.7z"/><path d="M3109.4-65.9c-160.9-220.2-291.1-503.6-231.7-503.6c97.7,0,430.9,513.2,396.4,607.1C3253,91.1,3201.3,56.7,3109.4-65.9z"/><path d="M5451.4-378.1c-137.9-15.3-541.9-114.9-541.9-134c0-5.7,28.7-24.9,63.2-44c32.6-19.2,95.8-82.3,137.9-139.8c78.5-111.1,149.3-160.9,222.1-160.9c65.1,0,157-80.4,218.3-193.4c103.4-191.5,88.1-511.3-32.6-630c-63.2-65.1-231.7-122.5-413.6-143.6c-235.6-26.8-132.1-76.6,118.7-57.5c224.1,19.2,279.6,36.4,392.6,134.1c114.9,97.7,149.4,105.3,210.6,40.2c24.9-24.9,88.1-65.1,141.7-88.1c84.3-36.4,120.7-42.1,243.2-32.6c78.5,5.8,178.1,21.1,218.3,32.6c116.8,34.5,49.8,57.5-176.2,57.5c-321.7,0-373.4,40.2-421.3,331.3c-49.8,306.4,3.8,459.6,174.2,507.5c99.6,28.7,224.1,136,224.1,193.4c0,19.2,40.2,70.9,88.1,113c47.9,44.1,82.4,88.1,76.6,97.7c-5.8,7.6-51.7,21.1-101.5,26.8c-51.7,5.8-151.3,26.8-225.9,47.9C5907.2-376.1,5641-357,5451.4-378.1z M5941.7-517.8c86.2-30.6,151.3-114.9,118.7-155.1c-21.1-24.9-30.6-24.9-78.5,11.5c-69,49.8-88.1,36.4-170.4-109.2c-97.7-172.4-180-176.2-233.6-11.5c-45.9,145.5-113,195.3-170.4,126.4c-34.5-42.1-57.5-34.5-57.5,15.3c0,65.1,24.9,90,116.8,118.7C5570.2-489.1,5853.6-487.2,5941.7-517.8z"/><path d="M7257.3-424c5.8-17.2,47.9-51.7,91.9-78.5c116.8-68.9,224-189.6,348.5-392.6c172.4-285.3,294.9-381.1,536.2-419.4c134.1-19.2,128.3,3.8-21.1,84.2c-170.4,91.9-237.5,158.9-392.6,383c-216.4,312.1-335.1,415.6-509.4,444.3C7255.4-393.4,7247.7-397.2,7257.3-424z"/><path d="M3936.7-448.9c-9.6-19.2-23-57.5-30.6-88.1c-13.4-55.5-176.2-226-515.1-536.2c-113-103.4-204.9-197.2-204.9-206.8c0-36.4,55.5-13.4,183.8,74.7c72.8,51.7,193.4,130.2,270,174.3c229.8,136,386.8,339,388.7,501.7C4028.6-431.7,3971.2-381.9,3936.7-448.9z"/><path d="M6883.8-912.3c-24.9-46,0-67,57.5-49.8c23,7.7,36.4,26.8,32.5,44C6964.3-872.1,6906.8-868.3,6883.8-912.3z"/><path d="M4871.2-981.3c-55.5-67,32.6-114.9,107.2-57.5c36.4,28.7,36.4,28.7,0,57.5C4930.6-944.9,4901.8-944.9,4871.2-981.3z"/><path d="M3852.4-1096.2c-174.3-118.7-224-168.5-189.6-189.6c21.1-13.4,312.1,155.1,361.9,210.6c42.1,47.9,57.5,103.4,26.8,103.4C4043.9-971.7,3953.9-1027.2,3852.4-1096.2z"/><path d="M6453-1021.5c-46-44-38.3-84.3,15.3-84.3c47.9,0,82.3,57.5,59.4,95.8C6510.4-983.2,6487.5-987,6453-1021.5z"/><path d="M7561.8-1124.9c-11.5-17.2,183.8-212.5,327.5-325.5c67-55.5,160.9-76.6,160.9-40.2c0,61.3-363.9,384.9-432.8,384.9C7592.4-1105.8,7567.5-1113.4,7561.8-1124.9z"/><path d="M4578.2-1213c-7.7-7.7-13.4-30.6-13.4-49.8c0-28.7,11.5-36.4,53.6-30.6c36.4,3.8,51.7,17.2,51.7,44C4670.1-1211.1,4606.9-1186.2,4578.2-1213z"/><path d="M6780.4-1251.3c-26.8-26.8-13.4-67,21.1-61.3c17.2,3.8,32.6,19.2,32.6,32.6C6834.1-1249.4,6799.6-1232.1,6780.4-1251.3z"/><path d="M2787.7-1281.9c-9.6-13.4-36.4-67-57.5-116.8c-47.9-111.1-266.2-331.3-563-574.5c-273.8-222.1-390.7-375.3-222.1-289.2c34.5,17.2,132.1,80.4,216.4,141.7c84.3,61.3,214.5,149.4,289.2,197.2c176.2,113,317.9,258.5,390.7,402.1c65.1,132.1,68.9,160.9,26.8,220.2C2835.6-1253.2,2816.4-1249.4,2787.7-1281.9z"/><path d="M5032.1-1364.3c-7.7-17.2-3.8-40.2,7.7-51.7c30.6-30.6,90-9.6,90,32.6C5129.7-1333.6,5049.3-1318.3,5032.1-1364.3z"/><path d="M3729.9-1553.8c-103.4-99.6-183.8-187.7-176.2-193.4c24.9-24.9,245.1,111.1,331.3,203c84.3,90,113,170.4,59.4,170.4C3930.9-1373.8,3833.3-1454.3,3729.9-1553.8z"/><path d="M7370.3-1576.8c-176.2-42.1-398.3-185.8-630-407.9c-206.8-195.3-317.9-275.8-467.3-337.1c-335.1-134.1-700.9-103.4-1216,105.3c-132.1,51.7-268.1,95.8-304.5,95.8c-59.4-1.9-55.5-5.7,70.9-72.8c74.7-40.2,195.3-111.1,268.1-157c187.6-114.9,308.3-164.7,490.2-203c287.2-57.4,601.3-3.8,854.1,149.4c57.5,34.5,222.1,176.2,365.8,312.1c145.6,137.9,298.8,277.7,340.9,312.1c95.8,74.7,229.8,136,294.9,137.9c51.7,0,111.1,30.7,93.8,46C7513.9-1578.8,7412.4-1567.3,7370.3-1576.8z"/><path d="M4291-2605.2c-114.9-176.2-323.6-658.8-384.9-896.2c-130.2-488.3-72.8-586,84.3-141.7c32.6,95.8,114.9,262.4,180,373.4c235.6,390.7,298.7,564.9,243.2,666.4C4384.8-2549.6,4327.3-2549.6,4291-2605.2z"/><path d="M4901.8-2727.7c-42.1-126.4-164.7-645.4-164.7-689.4c1.9-19.2,30.6,21.1,65.1,90c155.1,298.7,241.3,668.3,160.9,685.6C4940.1-2637.7,4924.8-2660.7,4901.8-2727.7z"/><path d="M5357.6-3376.9c-40.2-97.7-59.4-275.8-28.7-275.8c36.4,0,120.6,201.1,113,271.9C5434.2-3294.6,5394-3292.7,5357.6-3376.9z"/><path d="M5916.8-3421c-38.3-72.8-47.9-178.1-15.3-187.7c13.4-5.7,36.4,19.2,51.7,59.4C6006.8-3421,5974.2-3308,5916.8-3421z"/></g></g>
</svg>
