<svg xmlns="http://www.w3.org/2000/svg" xmlns:xlink="http://www.w3.org/1999/xlink" version="1.1" x="0px" y="0px" viewBox="8 5 45 55" enable-background="new 0 0 64 64" xml:space="preserve"><g><g><path d="M21.6866798,20.156517c-0.2509766-0.1801758-0.5732422-0.2324219-0.8691406-0.144043l-0.1689453,0.0512695    c-0.8867188,0.2700195-1.4990234,0.4238281-1.8945313,0.1162109c-0.6005859-0.4658203-1.1542969-1.2119141-1.4101563-1.8999023    c-0.2910156-0.7792969,0.0742188-1.4375,1.0849609-1.956543c1.1396484-0.5854492,1.7226563-1.4570313,2.2363281-2.2255859    c0.1630859-0.2431641,0.3291016-0.4926758,0.5195313-0.7412109c0.6914063-0.8999023,1.9228516-1.421875,3.1074219-1.9243164    c0.1123047-0.0424805,0.3808594-0.1157227,0.7089844-0.2084961c2.2216797-0.6293945,2.7636719-0.8413086,2.9794922-1.4765625    l0.5097656-1.4892578c0.7646484,0.8271484,1.4257813,1.9521484,2.0019531,3.4018555    c0.8916016,2.2421875,1.4550781,4.8227539,1.6748047,7.6694336c0.1425781,1.8520508,0.2890625,3.7675781,1.0019531,5.7216797    c0.6308594,1.734375,1.5878906,3.480957,3.0087891,5.4956055c5.0341797,7.1416016,8.6396484,13.1918945,5.5429688,20.5834961    c-0.2128906,0.5092773,0.0273438,1.0952148,0.5361328,1.3085938c0.5117188,0.2114258,1.0957031-0.0263672,1.3095703-0.5361328    c3.7685547-8.9995117-1.5107422-16.4897461-5.7539063-22.5087891c-1.3164063-1.8657227-2.1953125-3.4633789-2.7646484-5.0273438    c-0.6181641-1.6967773-0.7490234-3.3935547-0.8867188-5.190918c-0.2353516-3.0478516-0.8447266-5.824707-1.8095703-8.2543945    c-0.9736328-2.4482422-2.2060547-4.1533203-3.7675781-5.2119141c-0.2587891-0.1748047-0.5830078-0.21875-0.8789063-0.1206055    c-0.2949219,0.0986328-0.5273438,0.3295898-0.6289063,0.6245117L26.204258,8.7605209    c-0.4355469,0.1669922-1.3271484,0.4194336-1.7480469,0.5390625c-0.453125,0.1279297-0.8154297,0.2368164-0.9384766,0.2890625    c-1.3632813,0.5776367-2.9072266,1.2324219-3.9189453,2.550293c-0.21875,0.2836914-0.4091797,0.5688477-0.5957031,0.847168    c-0.4521484,0.6757813-0.8085938,1.2094727-1.4882813,1.5581055c-1.9140625,0.9838867-2.6982422,2.6826172-2.0449219,4.434082    c0.3886719,1.0429688,1.1572266,2.0830078,2.0576172,2.78125c1.1044922,0.8583984,2.3935547,0.5996094,3.3535156,0.3217773    c0.9042969,0.8662109,2.3310547,3.144043,0.1464844,7.9467773c-1.9794922,4.3520508-1.1689453,9.5146484-0.4541016,14.0703125    c0.1328125,0.847168,0.2636719,1.6796875,0.3730469,2.4892578c0.4736328,3.4780273-0.1699219,5.0991211-0.7919922,5.8466797    c-0.5341797,0.640625-1.3105469,0.9760742-2.3271484,1.0244141h-1.0283203c-2.2509766,0-4.0830078,1.7954102-4.0830078,4.0019531    c0,0.5522461,0.4472656,1,1,1h8.2216797c0.5527344,0,1-0.4477539,1-1s-0.4472656-1-1-1h-6.9423828    c0.3603516-0.5986328,1.0341797-1.0019531,1.8037109-1.0019531l1.0751953-0.0009766    c1.6318359-0.0756836,2.9160156-0.6625977,3.8164063-1.7431641c1.2802734-1.5366211,1.6962891-4.0249023,1.2382813-7.3964844    c-0.1123047-0.8227539-0.2451172-1.6689453-0.3798828-2.5297852c-0.7041016-4.4868164-1.4316406-9.1259766,0.2988281-12.9321289    C25.9923439,23.9436264,22.7540627,20.9187241,21.6866798,20.156517z"/><path d="M48.7433205,32.2248764c-0.1611328-0.5288086-0.7177734-0.8271484-1.2480469-0.6650391    c-0.5283203,0.1611328-0.8251953,0.7197266-0.6640625,1.2480469c3.9355469,12.909668,2.3955078,18.6787109,0.4101563,21.2451172    c-1.9306641,2.4970703-4.5888672,2.409668-4.7490234,2.4077148h-15.265625    c0.4267578-1.1655273,1.5810547-2.0029297,2.9326172-2.0029297h5.1396484c0.5527344,0,1-0.4477539,1-1s-0.4472656-1-1-1    c-3.4160156,0-6.1943359-2.6938477-6.1943359-6.0048828s2.7783203-6.0048828,6.1943359-6.0048828c0.5527344,0,1-0.4477539,1-1    s-0.4472656-1-1-1c-4.5185547,0-8.1943359,3.5908203-8.1943359,8.0048828c0,2.4046631,1.0960693,4.5595703,2.8198242,6.0281372    c-2.7064209,0.1231079-4.8754883,2.2996216-4.8754883,4.9796753c0,0.5522461,0.4472656,1,1,1l16.3886719-0.0014648    c0.0166016,0.0009766,0.0693359,0.003418,0.15625,0.003418c0.7392578,0,3.8769531-0.1831055,6.1953125-3.1420898    C52.1310158,51.0554428,52.1153908,43.284935,48.7433205,32.2248764z"/><ellipse cx="25.0210571" cy="14.1246567" rx="1.0277405" ry="1.0007324"/></g></g></svg>
