<?xml version="1.0" encoding="utf-8"?>
<!-- Svg Vector Icons : http://www.onlinewebfonts.com/icon -->
<svg version="1.1" xmlns="http://www.w3.org/2000/svg" xmlns:xlink="http://www.w3.org/1999/xlink" x="0px" y="0px" viewBox="0 0 1000 1000" enable-background="new 0 0 1000 1000" xml:space="preserve">
<metadata> Svg Vector Icons : http://www.onlinewebfonts.com/icon </metadata>
<g><g transform="translate(0.000000,511.000000) scale(0.100000,-0.100000)"><path d="M5028.8,4131.3c-208.8-23-488.4-97.7-695.2-185.8c-371.6-160.9-722.1-453.9-973-817.8c-220.3-317.9-415.6-486.5-716.3-616.7c-195.4-84.3-371.6-126.4-861.9-206.8c-226-38.3-448.2-76.6-494.1-88.1c-44.1-9.6-227.9-34.5-406-55.5c-400.3-46-553.5-93.8-662.7-203c-109.2-109.2-139.8-235.6-107.3-459.7C187,986.5,422.6,530.6,847.8,82.5c193.4-204.9,346.7-321.8,542-413.7c262.4-122.6,369.6-136,1068.7-139.8l616.7-3.8l262.4-70.9c145.6-38.3,285.4-70.9,310.3-70.9c24.9,0,101.5,24.9,168.5,57.5c277.7,132.2,383.1,24.9,283.5-291.1c-21.1-65.1-38.3-126.4-38.3-134.1c0-7.6,51.7-76.6,116.8-153.2c141.7-170.4,162.8-206.8,176.2-339c26.8-237.5,145.6-270.1,396.5-107.3c103.4,67,160.9,82.4,180,49.8c5.8-7.7-1.9-78.5-15.3-155.1c-15.3-76.6-23-151.3-17.2-164.7c17.2-44-82.4-224.1-201.1-362c-155.1-180-432.9-430.9-1030.4-930.8c-574.6-478.8-658.9-568.8-658.9-706.7c0-126.4,97.7-88.1,296.9,114.9c74.7,76.6,264.3,247.1,421.4,383.1c308.4,260.5,1024.7,976.8,1246.8,1244.9c180,214.5,296.9,321.8,492.2,450.1c206.8,134.1,260.5,155.1,296.9,116.8c26.8-26.8,17.2-53.6-82.4-254.7c-61.3-124.5-143.6-316-185.8-427.1c-40.2-111.1-109.2-260.5-153.2-335.2c-114.9-193.4-409.9-482.7-727.8-704.8c-283.5-201.1-344.7-268.1-348.6-375.4c-1.9-61.3,3.8-68.9,49.8-74.7c40.2-5.7,63.2,11.5,114.9,74.7c34.5,44.1,180,166.6,321.8,272c296.9,220.3,563.1,471.2,674.2,634c130.2,191.5,465.4,925.1,542,1193.2c26.8,88.1,63.2,182,80.4,206.8c19.2,24.9,199.2,168.5,398.4,319.9c427.1,317.9,858,733.5,1068.7,1030.4c337.1,473.1,478.8,953.8,386.9,1308.1c-46,176.2-99.6,260.5-296.9,463.5c-101.5,105.3-233.7,264.3-291.1,354.3c-143.6,224.1-262.4,323.7-551.6,463.5c-295,143.6-417.5,237.5-635.9,494.1c-383.1,446.3-532.4,561.2-609.1,469.2c-19.2-23-1.9-47.9,101.5-147.5c70.9-70.9,166.6-191.5,226-293c197.3-327.5,452-545.8,955.7-812.1c233.7-124.5,249-137.9,417.5-375.4c59.4-84.3,185.8-229.8,283.5-325.6c226-224.1,264.3-310.3,264.3-603.3c0-168.5-9.6-226-53.6-354.3c-120.7-352.4-367.7-710.6-731.6-1063c-296.9-287.3-519.1-453.9-1084.1-817.8c-540.1-346.7-695.2-434.8-733.5-419.4c-44,15.3-34.5,113,28.7,327.5c30.6,105.3,57.5,214.5,57.5,243.2c0,141.7-67,149.4-153.2,15.3c-67-105.3-319.9-350.5-406-394.5c-30.6-15.3-74.7-26.8-97.7-23c-38.3,5.7-42.1,19.2-51.7,162.8c-5.7,86.2-17.2,162.8-24.9,172.4c-9.6,7.7-51.7,28.7-95.8,44.1c-46,17.2-91.9,49.8-107.3,78.5c-24.9,46-23,63.2,13.4,180c23,69,132.2,316,243.2,545.8C5132.2,883,5408,1769.8,5408,2390.4c-1.9,275.8-40.2,434.8-143.7,576.5c-55.5,78.5-61.3,80.4-78.5,42.1c-13.4-30.6-3.8-72.8,36.4-172.4c44.1-109.2,53.6-166.6,61.3-350.5c15.3-429-86.2-766.1-545.9-1777.4C4607.5,419.6,4469.6,92,4431.3-19.1c-97.7-287.3-101.5-291.1-339-291.1c-124.5-1.9-220.3-11.5-270.1-30.6c-180-69-193.4-69-467.3-26.8c-229.8,34.5-335.2,40.2-854.2,36.4c-685.7-5.7-760.4,5.7-1059.1,147.5c-155.1,74.7-206.9,114.9-400.3,300.7C683.1,463.6,480.1,770,480.1,959.7c0,101.5,21.1,128.3,137.9,174.3c107.2,40.2,130.2,86.2,130.2,260.5c0,151.3,17.2,206.8,95.8,306.4c86.2,107.3,70.9,153.2-47.9,153.2c-63.2,0-105.3,19.2-105.3,47.9c0,67,442.4,160.9,1235.3,258.6c565,70.9,867.6,145.6,1110.9,273.9c147.5,78.5,427.1,354.3,574.6,568.8c229.8,333.3,530.5,578.4,881,720.1c304.5,122.6,455.8,149.4,842.7,151.3c381.1,0,501.8-17.2,806.3-114.9c476.9-155.1,823.6-390.7,1223.9-833.1C8376.7,1810,8817.2,992.2,9271.1-608.9c53.6-189.6,193.4-729.7,310.3-1200.9c147.5-595.6,222.2-863.8,241.3-871.4c111.1-42.1,101.5,310.3-23,838.9c-24.9,111.1-65.1,304.5-88.1,430.9C9451.2,59.5,8539.5,2020.7,7643.2,3035.8C6947.9,3824.9,5978.8,4230.9,5028.8,4131.3z"/><path d="M3669,2721.7c-13.4-61.3-47.9-136-114.9-245.2c-55.5-88.1-65.1-247.1-21.1-331.3c36.4-69,124.5-149.4,189.6-174.3c72.8-26.8,203-26.8,310.3,1.9l88.1,23l72.8-80.4c80.4-88.1,99.6-95.8,136-51.7c38.3,46,15.3,270.1-38.3,373.5c-82.4,162.8-484.6,536.3-576.5,536.3C3692,2773.4,3674.7,2756.2,3669,2721.7z M3814.5,2428.7c44-24.9,47.9-99.6,7.7-134.1c-38.3-32.6-116.8-9.6-130.2,36.4c-9.6,40.2,32.6,116.8,65.1,116.8C3768.6,2447.8,3793.5,2438.2,3814.5,2428.7z"/><path d="M6003.7,2151c-28.8-42.1-28.8-65.1-5.8-203c61.3-383-103.4-1120.4-369.6-1641.4c-162.8-316-174.3-408-34.5-266.2c323.7,329.4,632,1168.3,632,1723.8c0,224.1-23,325.6-86.2,388.8C6080.3,2212.2,6043.9,2210.3,6003.7,2151z"/><path d="M6754.5,1224c-23-24.9-44.1-105.3-61.3-224.1c-46-300.7-113-469.2-360.1-884.8c-233.7-394.6-235.6-434.8-15.3-203c231.8,241.3,446.3,589.9,542,879.1c57.5,174.3,61.3,371.6,9.6,429C6823.4,1269.9,6796.6,1269.9,6754.5,1224z"/></g></g>
</svg>
