<?xml version="1.0" encoding="utf-8"?>
<!-- Svg Vector Icons : http://www.onlinewebfonts.com/icon -->
<svg version="1.1" xmlns="http://www.w3.org/2000/svg" xmlns:xlink="http://www.w3.org/1999/xlink" x="0px" y="0px" viewBox="0 0 1000 1000" enable-background="new 0 0 1000 1000" xml:space="preserve">
<metadata> Svg Vector Icons : http://www.onlinewebfonts.com/icon </metadata>
<g><g transform="translate(0.000000,512.000000) scale(0.100000,-0.100000)"><path d="M3176.5,5050.2c-471.1-100.8-814.3-525.4-814.3-1006.2c0-261.7,95-496.3,285-705.7l104.7-116.3l-23.3-129.9c-29.1-168.7-11.6-560.3,33-725.1c50.4-188.1,147.3-407.1,250.1-564.2c178.4-265.6,488.6-527.3,777.4-649.5l122.1-52.3l-64-79.5c-145.4-178.4-269.5-467.2-298.6-699.9c-11.6-100.8-21.3-120.2-77.5-159c-96.9-64-265.6-122.1-430.4-145.4c-283.1-40.7-593.3,62.1-820.1,275.3c-71.7,65.9-129.9,126-129.9,133.8c1.9,5.8,44.6,42.7,96.9,79.5c128,89.2,240.4,244.3,290.8,399.4c34.9,104.7,42.7,160.9,34.9,308.3c-5.8,159-15.5,195.8-79.5,325.7c-250.1,506-907.3,632-1314.5,252c-190-176.4-269.5-358.7-269.5-616.5c0-255.9,79.5-440.1,265.6-614.6c155.1-143.5,362.5-228.8,556.4-228.8h98.9l91.1-124.1c162.9-226.8,471.1-422.6,763.9-486.6c217.1-48.5,531.2-33,725.1,36.8c79.5,29.1,159,56.2,176.4,62c23.3,7.8,36.8-17.4,62-108.6c19.4-65.9,65.9-180.3,102.8-255.9l69.8-137.6l-42.7-131.9c-131.8-407.1-521.5-808.4-922.8-950c-160.9-56.2-376.1-95-535.1-95h-135.7l11.6,64c75.6,354.8-23.3,692.1-277.2,946.1c-413,412.9-1046.9,412.9-1457.9,0c-151.2-153.2-236.5-314.1-283.1-535.1c-102.7-508,219.1-1031.4,729-1180.7c139.6-40.7,428.5-40.7,566.1,0c201.6,60.1,405.2,191.9,509.9,331.5l56.2,73.7l248.2-5.8c283.1-7.8,478.9,23.2,715.4,114.4c420.7,160.9,773.6,484.7,975.2,889.9c44.6,91.1,83.4,168.7,85.3,170.6c1.9,3.9,58.2-31,126-79.5c211.3-149.3,440.1-244.3,666.9-275.3l100.8-13.6l58.2-128c77.6-170.6,98.9-269.5,100.8-467.2c0-279.2-85.3-511.8-263.7-715.4c-137.7-157.1-137.7-157.1-281.1-15.5c-279.2,271.4-639.8,331.5-986.8,162.8c-329.6-159-527.3-542.9-469.2-901.5c62-372.2,354.8-665,727-727c345.1-56.2,725.1,131.8,891.8,444c71.7,133.8,116.3,352.9,100.8,490.5c-11.6,106.6-11.6,106.6,58.2,153.2c116.3,77.5,310.2,302.4,383.9,442c124.1,238.5,159,387.7,157.1,674.7c-2,203.6-9.7,277.2-44.6,387.8c-73.7,230.7-79.5,211.3,56.2,240.4c65.9,15.5,201.6,67.9,302.5,118.3l180.3,91.1l96.9-33c465.3-164.8,822-537,971.3-1017.8c46.5-147.4,71.7-469.2,50.4-614.6l-13.6-89.2l-129.9,46.5c-635.9,221-1302.8-209.4-1372.6-886c-48.5-476.9,273.4-951.9,740.6-1093.5c531.2-159,1120.6,155.1,1289.3,686.3c56.2,178.3,56.2,449.8,0,624.3c-38.8,124.1-159,331.5-219.1,381.9c-27.1,21.3-27.1,34.9,0,145.4c40.7,164.8,38.8,579.7-1.9,763.9c-126,550.6-529.3,1060.5-1017.9,1279.6c-60.1,27.1-114.4,52.3-118.3,56.2c-3.9,3.9,23.3,48.5,62,98.9c135.7,188,230.7,420.7,271.4,668.9l23.3,141.5l124.1,60.1c201.6,100.8,440.1,129.9,665,83.4c129.9-27.1,350.9-133.8,449.8-219.1l75.6-65.9L7688-211.6c-308.3-286.9-362.5-736.7-131.8-1072.1c378.1-548.7,1176.8-484.7,1463.8,120.2c56.2,120.2,60.1,141.5,60.1,341.2s-3.9,221-62,345.1C8874.5-174.7,8577.9,21.1,8256,21.1c-106.6,0-108.6,1.9-244.3,131.8c-219.1,211.3-457.6,327.7-771.6,374.2c-184.2,27.1-436.2,0-626.2-69.8c-71.7-25.2-135.7-42.7-141.5-38.8c-7.8,3.9-23.3,54.3-36.8,112.4c-11.6,58.2-58.2,172.6-98.9,257.9L6259.1,942l31,96.9c77.6,234.6,230.7,467.2,418.8,639.8c267.5,242.3,589.4,374.2,961.6,391.6l223,11.6l-13.6-46.5c-9.7-25.2-19.4-135.7-25.2-242.3c-7.7-149.3-1.9-223,23.3-310.2c98.9-343.1,347-603,688.3-717.3c160.9-56.2,492.5-48.5,649.5,11.6c412.9,159,657.2,488.6,682.4,920.9c27.1,467.2-246.2,874.4-694.1,1031.4c-190,65.9-447.9,69.8-639.8,7.7c-157.1-50.4-329.6-160.9-438.2-279.2l-83.4-89.2l-151.2,17.4c-186.1,21.3-465.3-3.9-659.2-58.2c-507.9-141.5-911.2-478.9-1155.5-965.5l-69.8-139.6l-98.9,77.5c-143.5,112.4-350.9,205.5-571.9,257.9l-191.9,44.6l-62,116.3c-34.9,65.9-75.6,168.7-93,230.7c-36.8,147.3-36.8,414.9,0,560.3c36.8,137.7,149.3,358.7,215.2,418.8l46.5,44.6l112.4-106.6c180.3-172.5,370.3-248.2,622.4-248.2c432.3,1.9,785.2,310.2,856.9,748.4c93.1,570-434.3,1093.5-1006.2,998.5c-333.5-56.2-593.2-279.2-701.8-603c-33-100.8-40.7-159-34.9-296.6l5.8-168.7l-112.4-122.1c-141.5-149.3-288.9-440.1-331.5-657.2c-54.3-265.6-29.1-570,67.9-814.3c19.4-52.3,36.8-100.8,36.8-108.6c0-7.8-54.3-27.2-120.2-42.7c-67.9-13.6-197.7-64-288.9-110.5l-166.7-83.4l-104.7,31c-374.2,112.4-727,407.1-897.6,754.2c-112.5,224.9-155.1,411-157,672.7c0,124.1,5.8,230.7,11.6,238.5c7.8,5.8,52.3,1.9,96.9-11.6c139.6-38.8,395.5-31,550.6,17.5c428.5,129.9,727,535.1,727,982.9c0,281.1-96.9,513.8-300.5,719.3c-155.1,157-314.1,244.3-523.5,288.9C3428.5,5087,3341.3,5087,3176.5,5050.2z M3680.6,4689.6c162.9-75.6,259.8-172.5,343.2-339.3c65.9-131.8,71.7-159,71.7-306.3s-5.8-174.5-71.7-306.3c-81.4-164.8-174.5-255.9-343.2-339.3c-93.1-46.5-129.9-52.3-290.8-52.3c-164.8,0-195.8,5.8-298.6,56.2c-290.8,143.5-457.5,459.5-399.4,756.1c54.3,273.4,234.6,482.7,490.5,566.1C3312.2,4767.1,3550.7,4749.7,3680.6,4689.6z M6212.6,3999.4c120.2-62,188.1-126,248.2-236.5c114.4-211.3,83.4-467.2-79.5-641.7c-118.3-128-232.7-178.4-403.3-180.3c-319.9-3.9-560.3,236.5-560.3,560.3c0,108.6,11.6,155.1,52.3,234.6c60.1,118.3,197.8,246.2,310.2,286.9C5892.7,4065.3,6107.9,4053.7,6212.6,3999.4z M9173,2398c533.2-254,550.6-990.7,29.1-1273.8c-116.3-64-129.9-65.9-325.7-65.9c-186.1,0-213.3,3.9-316,56.2c-219.1,110.5-372.2,337.3-395.5,579.7c-29.1,316,188.1,641.7,496.3,740.6C8798.9,2479.4,9035.4,2462,9173,2398z M1842.6,1669c106.6-31,226.8-131.8,290.8-244.3c195.8-349-50.4-763.9-447.9-763.9c-564.2,1.9-721.2,758.1-207.5,990.7C1567.3,1692.3,1732.1,1700,1842.6,1669z M5297.5,1242.5c217.1-54.3,366.4-141.5,537-310.2c610.7-606.8,378-1613-444-1913.5c-174.5-64-445.9-79.5-628.1-36.8C4023.7-843.6,3645.7-50.6,3975.3,635.7c44.6,93.1,108.6,176.4,219.1,288.9C4500.7,1234.7,4888.4,1347.2,5297.5,1242.5z M8459.6-347.3c430.4-184.2,407.1-800.7-34.9-963.6c-166.7-62.1-399.4-9.7-527.3,118.3C7490.2-783.5,7930.3-118.5,8459.6-347.3z M1247.4-872.7c232.7-42.6,432.3-193.9,529.3-401.3c46.5-96.9,52.3-135.7,52.3-304.4c0-184.2-3.9-199.7-65.9-316c-79.5-147.4-201.6-261.7-347-329.6c-93.1-44.6-137.7-52.4-285-52.4s-191.9,7.7-285,52.4c-153.2,71.7-275.3,190-350.9,343.1c-56.2,116.3-62,143.5-62,312.1c0,162.8,5.8,197.8,54.3,294.7c104.7,211.3,302.4,364.5,521.5,401.3c56.2,9.7,108.6,17.5,114.4,19.4C1129.2-853.3,1185.4-861,1247.4-872.7z M4099.4-2784.3c128-42.7,281.1-195.8,323.8-323.8c65.9-195.8,27.1-391.6-106.6-544.8c-120.2-137.6-205.5-174.5-403.3-174.5c-190,0-273.4,34.9-389.7,159c-118.3,124.1-143.5,188.1-143.5,374.2s25.2,250.1,143.5,374.2C3674.8-2761,3884.1-2710.6,4099.4-2784.3z M6805.8-3142.9c141.5-65.9,283-205.5,356.7-354.8c50.4-104.7,56.2-135.7,56.2-300.5c-1.9-162.9-7.8-197.8-58.2-300.5c-69.8-147.3-201.6-277.2-349-350.9c-104.7-50.4-135.7-56.2-300.5-56.2c-159,0-199.7,7.8-294.7,52.4c-147.3,67.9-267.5,184.2-347,329.6c-64,116.3-65.9,131.8-65.9,325.7c0,184.2,5.8,213.3,52.4,304.4c98.9,186.1,209.4,286.9,401.3,368.4C6408.4-3061.5,6644.9-3069.3,6805.8-3142.9z"/></g></g>
</svg>
